<?xml version="1.0" encoding="utf-8"?>
<!-- Generator: Adobe Illustrator 19.0.0, SVG Export Plug-In . SVG Version: 6.00 Build 0)  -->
<svg version="1.1" id="layer" xmlns="http://www.w3.org/2000/svg" xmlns:xlink="http://www.w3.org/1999/xlink" x="0px" y="0px"
	 viewBox="-153 -46 652 652" style="enable-background:new -153 -46 652 652;" xml:space="preserve">
	<style type="text/css">
		.st0{font-family:'GillSansMT';}
		.st1{font-size:141.1035px;}
		.st2{fill:#FFFFFF;}
		.st3{fill:#034EA2;}
		.st4{fill:#00AEEF;}
		.st5{clip-path:url(#SVGID_2_);fill:#FFFFFF;}
	</style>
	<g>
		<text transform="matrix(1 0 0 1 46.7762 194.4333)" class="st0 st1"> </text>
	</g>
	<rect x="-28.9" y="26.1" class="st2" width="395.3" height="500"/>
	<rect x="-19.4" y="37" class="st3" width="375.3" height="375.3"/>
	<rect x="-19.6" y="428.1" class="st4" width="375.3" height="86.3"/>
	<g>
		<defs>
			<rect id="SVGID_1_" x="-28.9" y="26.1" width="395.3" height="500"/>
		</defs>
		<clipPath id="SVGID_2_">
			<use xlink:href="#SVGID_1_"  style="overflow:visible;"/>
		</clipPath>
		<path class="st5" d="M25.3,189.3h9.9c6.9,0,9.7,4.1,9.7,8c0,4-2.8,8.2-9.7,8.2h-9.9V189.3z M6.5,175.4v75.7h36.9
			c22.1,0,26.8-13.5,26.8-22.2c0-8.9-5.3-16.7-16.1-19.4c6.3-3.1,10.3-8.8,10.3-15.1c0-8.5-7.2-19-25.1-19H6.5z M25.3,219.4h13.2
			c6.7,0,11.5,3,11.5,8.6c0,6.5-3.7,9.3-14.1,9.3H25.3V219.4z"/>
		<path class="st5" d="M111.5,189.3h9.5c7.1,0,10.8,2.9,10.8,8.6c0,6.4-5.1,8.6-10.3,8.6h-10V189.3z M92.6,175.4v75.7h18.9v-30.8h5.4
			c10.2,0,13.2,14.5,21.3,30.8H159c-10.7-22.2-13-31.5-20.7-35.4c8.7-4,13-10.2,13-18.6c0-11.3-9.2-21.7-24.8-21.7H92.6z"/>
		<polygon class="st5" points="232.6,251.1 176.7,251.1 176.7,175.4 231.8,175.4 231.8,189.3 195.6,189.3 195.6,205.2 230.1,205.2 
			230.1,219 195.6,219 195.6,237.3 232.6,237.3 	"/>
		<path class="st5" d="M274.4,189.3h12.1c17.9,0,24.9,11,24.9,24c0,11.1-5.7,24-24.7,24h-12.3V189.3z M255.5,175.4v75.7h31.3
			c30.2,0,44-20,44-41.8c0-20.8-14.2-33.9-41.9-33.9H255.5z"/>
		<rect x="5.6" y="271.8" class="st5" width="322.8" height="6.6"/>
		<path class="st5" d="M65.2,300.3c15.9,0,19.6,8.4,19.6,15.2c0,5.9-2.7,10-8.5,13.2c9,1.9,13.7,7.1,13.7,15
			c0,9.7-7.8,15.7-19.8,15.7H52.9v-59H65.2z M57.5,327.6h6.3c11.9,0,16.1-4.8,16.1-11.8c0-9-7.1-11.8-16.3-11.8h-6.1V327.6z
			M57.5,355.5h12.2c12.2,0,15.4-6.6,15.4-11.9c0-5.8-3.1-12.1-17.4-12.1H57.5V355.5z"/>
		<path class="st5" d="M155.3,359.3h-4.8l-9.3-20.4h-28.8l-9.3,20.4h-4.8l27.2-59.4h2.5L155.3,359.3z M126.7,307.3l-12.6,27.8h25.3
			L126.7,307.3z"/>
		<polygon class="st5" points="219.9,359.3 216.1,359.3 171.3,307.7 171.3,359.3 166.7,359.3 166.7,300.3 170.6,300.3 215.3,351.9 
			215.3,300.3 219.9,300.3 	"/>
		<polygon class="st5" points="248,329.7 278.8,359.3 273,359.3 242.1,329.8 242.1,359.3 237.5,359.3 237.5,300.3 242.1,300.3 
			242.1,329.7 270.4,300.3 276.1,300.3 	"/>
		<polygon class="st5" points="119,446.3 149.4,446.3 149.4,451.8 126.2,451.8 126.2,468.7 147.6,468.7 147.6,474.1 126.2,474.1 
			126.2,497.1 119,497.1 	"/>
		<rect x="161.4" y="446.3" class="st5" width="7.3" height="50.8"/>
		<path class="st5" d="M194.7,446.3h7.3v34c0,13.5-7.4,17.6-17.1,17.6c-2.7,0-5.9-0.5-7.8-1.2l1.1-5.4c1.5,0.5,3.7,1,6.1,1
			c6.5,0,10.4-2.6,10.4-12.6V446.3z"/>
		<rect x="215.8" y="446.3" class="st5" width="7.3" height="50.8"/>
	</g>
</svg>
